<?xml version="1.0" encoding="UTF-8" standalone="no"?>
<svg
   width="900"
   height="900"
   viewBox="0 0 900 900"
   version="1.1"
   id="svg64"
   sodipodi:docname="twentySix_checkout_wheel_gapped.svg"
   inkscape:version="1.4.4 (dcaf3e7, 2026-05-05)"
   xmlns:inkscape="http://www.inkscape.org/namespaces/inkscape"
   xmlns:sodipodi="http://sodipodi.sourceforge.net/DTD/sodipodi-0.dtd"
   xmlns="http://www.w3.org/2000/svg"
   xmlns:svg="http://www.w3.org/2000/svg">
  <defs
     id="defs64" />
  <sodipodi:namedview
     id="namedview64"
     pagecolor="#ffffff"
     bordercolor="#000000"
     borderopacity="0.25"
     inkscape:showpageshadow="2"
     inkscape:pageopacity="0.0"
     inkscape:pagecheckerboard="0"
     inkscape:deskcolor="#d1d1d1"
     showgrid="false"
     inkscape:zoom="1.3055556"
     inkscape:cx="398.29787"
     inkscape:cy="474.12766"
     inkscape:window-width="1881"
     inkscape:window-height="1368"
     inkscape:window-x="-7"
     inkscape:window-y="0"
     inkscape:window-maximized="0"
     inkscape:current-layer="checkout-wheel" />
  <title
     id="title1">twentySix Checkout Wheel</title>
  <g
     id="checkout-wheel"
     font-family="Inter,ui-sans-serif,system-ui,sans-serif"
     text-anchor="middle"
     dominant-baseline="middle">
    <g
       id="checkout-170"
       data-checkout="170"
       data-hits="0"
       data-level="Locked">
      <circle
         style="fill:#25252d;stroke:#2e2e38;stroke-width:1.50047;stroke-dasharray:none"
         id="path65"
         cx="450"
         cy="450"
         r="60" />
      <text
         class="checkout-label"
         x="449.96582"
         y="452.85742"
         fill="#f4f4f5"
         font-size="36px"
         font-weight="600"
         id="text1">170</text>
    </g>
    <g
       id="checkout-161"
       data-checkout="161"
       data-hits="0"
       data-level="Locked">
      <path
         class="checkout-segment"
         d="M450.600,310.001 A140,140 0 0 1 571.542,519.480 L502.090,479.777 A60,60 0 0 0 450.257,390.001 Z"
         fill="#25252d"
         stroke="#2e2e38"
         stroke-width="1.5"
         stroke-linejoin="round"
         id="path2" />
      <text
         class="checkout-label"
         x="536.603"
         y="400.000"
         fill="#f4f4f5"
         font-size="27px"
         font-weight="600"
         id="text2">161</text>
    </g>
    <g
       id="checkout-164"
       data-checkout="164"
       data-hits="0"
       data-level="Locked">
      <path
         class="checkout-segment"
         d="M570.942,520.519 A140,140 0 0 1 329.058,520.519 L398.168,480.222 A60,60 0 0 0 501.832,480.222 Z"
         fill="#25252d"
         stroke="#2e2e38"
         stroke-width="1.5"
         stroke-linejoin="round"
         id="path3" />
      <text
         class="checkout-label"
         x="450.000"
         y="550.000"
         fill="#f4f4f5"
         font-size="27px"
         font-weight="600"
         id="text3">164</text>
    </g>
    <g
       id="checkout-167"
       data-checkout="167"
       data-hits="0"
       data-level="Locked">
      <path
         class="checkout-segment"
         d="M328.458,519.480 A140,140 0 0 1 449.400,310.001 L449.743,390.001 A60,60 0 0 0 397.910,479.777 Z"
         fill="#25252d"
         stroke="#2e2e38"
         stroke-width="1.5"
         stroke-linejoin="round"
         id="path4" />
      <text
         class="checkout-label"
         x="363.397"
         y="400.000"
         fill="#f4f4f5"
         font-size="27px"
         font-weight="600"
         id="text4">167</text>
    </g>
    <g
       id="checkout-151"
       data-checkout="151"
       data-hits="0"
       data-level="Locked">
      <path
         class="checkout-segment"
         d="M450.600,240.001 A210,210 0 0 1 584.525,288.746 L539.683,342.497 A140,140 0 0 0 450.400,310.001 Z"
         fill="#25252d"
         stroke="#2e2e38"
         stroke-width="1.5"
         stroke-linejoin="round"
         id="path5" />
      <text
         class="checkout-label"
         x="509.854"
         y="285.554"
         fill="#f4f4f5"
         font-size="22px"
         font-weight="600"
         id="text5">151</text>
    </g>
    <g
       id="checkout-152"
       data-checkout="152"
       data-hits="0"
       data-level="Locked">
      <path
         class="checkout-segment"
         d="M585.444,289.517 A210,210 0 0 1 656.705,412.943 L587.803,425.295 A140,140 0 0 0 540.296,343.011 Z"
         fill="#25252d"
         stroke="#2e2e38"
         stroke-width="1.5"
         stroke-linejoin="round"
         id="path6" />
      <text
         class="checkout-label"
         x="601.554"
         y="362.500"
         fill="#f4f4f5"
         font-size="22px"
         font-weight="600"
         id="text6">152</text>
    </g>
    <g
       id="checkout-153"
       data-checkout="153"
       data-hits="0"
       data-level="Locked">
      <path
         class="checkout-segment"
         d="M656.913,414.125 A210,210 0 0 1 632.165,554.480 L571.443,519.653 A140,140 0 0 0 587.942,426.083 Z"
         fill="#25252d"
         stroke="#2e2e38"
         stroke-width="1.5"
         stroke-linejoin="round"
         id="path7" />
      <text
         class="checkout-label"
         x="622.341"
         y="480.388"
         fill="#f4f4f5"
         font-size="22px"
         font-weight="600"
         id="text7">153</text>
    </g>
    <g
       id="checkout-154"
       data-checkout="154"
       data-hits="0"
       data-level="Locked">
      <path
         class="checkout-segment"
         d="M631.565,555.519 A210,210 0 0 1 522.388,647.129 L498.259,581.420 A140,140 0 0 0 571.043,520.346 Z"
         fill="#25252d"
         stroke="#2e2e38"
         stroke-width="1.5"
         stroke-linejoin="round"
         id="path8" />
      <text
         class="checkout-label"
         x="562.488"
         y="584.058"
         fill="#f4f4f5"
         font-size="22px"
         font-weight="600"
         id="text8">154</text>
    </g>
    <g
       id="checkout-155"
       data-checkout="155"
       data-hits="0"
       data-level="Locked">
      <path
         class="checkout-segment"
         d="M521.260,647.540 A210,210 0 0 1 378.740,647.540 L402.493,581.693 A140,140 0 0 0 497.507,581.693 Z"
         fill="#25252d"
         stroke="#2e2e38"
         stroke-width="1.5"
         stroke-linejoin="round"
         id="path9" />
      <text
         class="checkout-label"
         x="450.000"
         y="625.000"
         fill="#f4f4f5"
         font-size="22px"
         font-weight="600"
         id="text9">155</text>
    </g>
    <g
       id="checkout-156"
       data-checkout="156"
       data-hits="0"
       data-level="Locked">
      <path
         class="checkout-segment"
         d="M377.612,647.129 A210,210 0 0 1 268.435,555.519 L328.957,520.346 A140,140 0 0 0 401.741,581.420 Z"
         fill="#25252d"
         stroke="#2e2e38"
         stroke-width="1.5"
         stroke-linejoin="round"
         id="path10" />
      <text
         class="checkout-label"
         x="337.512"
         y="584.058"
         fill="#f4f4f5"
         font-size="22px"
         font-weight="600"
         id="text10">156</text>
    </g>
    <g
       id="checkout-157"
       data-checkout="157"
       data-hits="0"
       data-level="Locked">
      <path
         class="checkout-segment"
         d="M267.835,554.480 A210,210 0 0 1 243.087,414.125 L312.058,426.083 A140,140 0 0 0 328.557,519.653 Z"
         fill="#25252d"
         stroke="#2e2e38"
         stroke-width="1.5"
         stroke-linejoin="round"
         id="path11" />
      <text
         class="checkout-label"
         x="277.659"
         y="480.388"
         fill="#f4f4f5"
         font-size="22px"
         font-weight="600"
         id="text11">157</text>
    </g>
    <g
       id="checkout-158"
       data-checkout="158"
       data-hits="0"
       data-level="Locked">
      <path
         class="checkout-segment"
         d="M243.295,412.943 A210,210 0 0 1 314.556,289.517 L359.704,343.011 A140,140 0 0 0 312.197,425.295 Z"
         fill="#25252d"
         stroke="#2e2e38"
         stroke-width="1.5"
         stroke-linejoin="round"
         id="path12" />
      <text
         class="checkout-label"
         x="298.446"
         y="362.500"
         fill="#f4f4f5"
         font-size="22px"
         font-weight="600"
         id="text12">158</text>
    </g>
    <g
       id="checkout-160"
       data-checkout="160"
       data-hits="0"
       data-level="Locked">
      <path
         class="checkout-segment"
         d="M315.475,288.746 A210,210 0 0 1 449.400,240.001 L449.600,310.001 A140,140 0 0 0 360.317,342.497 Z"
         fill="#25252d"
         stroke="#2e2e38"
         stroke-width="1.5"
         stroke-linejoin="round"
         id="path13" />
      <text
         class="checkout-label"
         x="390.146"
         y="285.554"
         fill="#f4f4f5"
         font-size="22px"
         font-weight="600"
         id="text13">160</text>
    </g>
    <g
       id="checkout-138"
       data-checkout="138"
       data-hits="0"
       data-level="Locked">
      <path
         class="checkout-segment"
         d="M450.600,175.001 A275,275 0 0 1 577.267,206.221 L547.186,263.842 A210,210 0 0 0 450.458,240.000 Z"
         fill="#25252d"
         stroke="#2e2e38"
         stroke-width="1.5"
         stroke-linejoin="round"
         id="path14" />
      <text
         class="checkout-label"
         x="508.034"
         y="214.547"
         fill="#f4f4f5"
         font-size="19px"
         font-weight="600"
         id="text14">138</text>
    </g>
    <g
       id="checkout-139"
       data-checkout="139"
       data-hits="0"
       data-level="Locked">
      <path
         class="checkout-segment"
         d="M578.330,206.779 A275,275 0 0 1 675.979,293.289 L622.566,330.330 A210,210 0 0 0 547.997,264.268 Z"
         fill="#25252d"
         stroke="#2e2e38"
         stroke-width="1.5"
         stroke-linejoin="round"
         id="path15" />
      <text
         class="checkout-label"
         x="610.807"
         y="268.486"
         fill="#f4f4f5"
         font-size="19px"
         font-weight="600"
         id="text15">139</text>
    </g>
    <g
       id="checkout-140"
       data-checkout="140"
       data-hits="0"
       data-level="Locked">
      <path
         class="checkout-segment"
         d="M676.661,294.276 A275,275 0 0 1 722.922,416.257 L658.413,424.233 A210,210 0 0 0 623.086,331.084 Z"
         fill="#25252d"
         stroke="#2e2e38"
         stroke-width="1.5"
         stroke-linejoin="round"
         id="path16" />
      <text
         class="checkout-label"
         x="676.741"
         y="364.008"
         fill="#f4f4f5"
         font-size="19px"
         font-weight="600"
         id="text16">140</text>
    </g>
    <g
       id="checkout-141"
       data-checkout="141"
       data-hits="0"
       data-level="Locked">
      <path
         class="checkout-segment"
         d="M723.067,417.448 A275,275 0 0 1 707.342,546.955 L646.515,524.038 A210,210 0 0 0 658.524,425.142 Z"
         fill="#25252d"
         stroke="#2e2e38"
         stroke-width="1.5"
         stroke-linejoin="round"
         id="path17" />
      <text
         class="checkout-label"
         x="690.732"
         y="479.230"
         fill="#f4f4f5"
         font-size="19px"
         font-weight="600"
         id="text17">141</text>
    </g>
    <g
       id="checkout-142"
       data-checkout="142"
       data-hits="0"
       data-level="Locked">
      <path
         class="checkout-segment"
         d="M706.916,548.077 A275,275 0 0 1 632.807,655.442 L589.598,606.883 A210,210 0 0 0 646.190,524.895 Z"
         fill="#25252d"
         stroke="#2e2e38"
         stroke-width="1.5"
         stroke-linejoin="round"
         id="path18" />
      <text
         class="checkout-label"
         x="649.574"
         y="587.756"
         fill="#f4f4f5"
         font-size="19px"
         font-weight="600"
         id="text18">142</text>
    </g>
    <g
       id="checkout-143"
       data-checkout="143"
       data-hits="0"
       data-level="Locked">
      <path
         class="checkout-segment"
         d="M631.909,656.238 A275,275 0 0 1 516.394,716.865 L500.701,653.788 A210,210 0 0 0 588.912,607.491 Z"
         fill="#25252d"
         stroke="#2e2e38"
         stroke-width="1.5"
         stroke-linejoin="round"
         id="path19" />
      <text
         class="checkout-label"
         x="562.695"
         y="664.723"
         fill="#f4f4f5"
         font-size="19px"
         font-weight="600"
         id="text19">143</text>
    </g>
    <g
       id="checkout-144"
       data-checkout="144"
       data-hits="0"
       data-level="Locked">
      <path
         class="checkout-segment"
         d="M515.229,717.152 A275,275 0 0 1 384.771,717.152 L400.189,654.007 A210,210 0 0 0 499.811,654.007 Z"
         fill="#25252d"
         stroke="#2e2e38"
         stroke-width="1.5"
         stroke-linejoin="round"
         id="path20" />
      <text
         class="checkout-label"
         x="450.000"
         y="692.500"
         fill="#f4f4f5"
         font-size="19px"
         font-weight="600"
         id="text20">144</text>
    </g>
    <g
       id="checkout-145"
       data-checkout="145"
       data-hits="0"
       data-level="Locked">
      <path
         class="checkout-segment"
         d="M383.606,716.865 A275,275 0 0 1 268.091,656.238 L311.088,607.491 A210,210 0 0 0 399.299,653.788 Z"
         fill="#25252d"
         stroke="#2e2e38"
         stroke-width="1.5"
         stroke-linejoin="round"
         id="path21" />
      <text
         class="checkout-label"
         x="337.305"
         y="664.723"
         fill="#f4f4f5"
         font-size="19px"
         font-weight="600"
         id="text21">145</text>
    </g>
    <g
       id="checkout-146"
       data-checkout="146"
       data-hits="0"
       data-level="Locked">
      <path
         class="checkout-segment"
         d="M267.193,655.442 A275,275 0 0 1 193.084,548.077 L253.810,524.895 A210,210 0 0 0 310.402,606.883 Z"
         fill="#25252d"
         stroke="#2e2e38"
         stroke-width="1.5"
         stroke-linejoin="round"
         id="path22" />
      <text
         class="checkout-label"
         x="250.426"
         y="587.756"
         fill="#f4f4f5"
         font-size="19px"
         font-weight="600"
         id="text22">146</text>
    </g>
    <g
       id="checkout-147"
       data-checkout="147"
       data-hits="0"
       data-level="Locked">
      <path
         class="checkout-segment"
         d="M192.658,546.955 A275,275 0 0 1 176.933,417.448 L241.476,425.142 A210,210 0 0 0 253.485,524.038 Z"
         fill="#25252d"
         stroke="#2e2e38"
         stroke-width="1.5"
         stroke-linejoin="round"
         id="path23" />
      <text
         class="checkout-label"
         x="209.268"
         y="479.230"
         fill="#f4f4f5"
         font-size="19px"
         font-weight="600"
         id="text23">147</text>
    </g>
    <g
       id="checkout-148"
       data-checkout="148"
       data-hits="0"
       data-level="Locked">
      <path
         class="checkout-segment"
         d="M177.078,416.257 A275,275 0 0 1 223.339,294.276 L276.914,331.084 A210,210 0 0 0 241.587,424.233 Z"
         fill="#25252d"
         stroke="#2e2e38"
         stroke-width="1.5"
         stroke-linejoin="round"
         id="path24" />
      <text
         class="checkout-label"
         x="223.259"
         y="364.008"
         fill="#f4f4f5"
         font-size="19px"
         font-weight="600"
         id="text24">148</text>
    </g>
    <g
       id="checkout-149"
       data-checkout="149"
       data-hits="0"
       data-level="Locked">
      <path
         class="checkout-segment"
         d="M224.021,293.289 A275,275 0 0 1 321.670,206.779 L352.003,264.268 A210,210 0 0 0 277.434,330.330 Z"
         fill="#25252d"
         stroke="#2e2e38"
         stroke-width="1.5"
         stroke-linejoin="round"
         id="path25" />
      <text
         class="checkout-label"
         x="289.193"
         y="268.486"
         fill="#f4f4f5"
         font-size="19px"
         font-weight="600"
         id="text25">149</text>
    </g>
    <g
       id="checkout-150"
       data-checkout="150"
       data-hits="0"
       data-level="Locked">
      <path
         class="checkout-segment"
         d="M322.733,206.221 A275,275 0 0 1 449.400,175.001 L449.542,240.000 A210,210 0 0 0 352.814,263.842 Z"
         fill="#25252d"
         stroke="#2e2e38"
         stroke-width="1.5"
         stroke-linejoin="round"
         id="path26" />
      <text
         class="checkout-label"
         x="391.966"
         y="214.547"
         fill="#f4f4f5"
         font-size="19px"
         font-weight="600"
         id="text26">150</text>
    </g>
    <g
       id="checkout-121"
       data-checkout="121"
       data-hits="0"
       data-level="Locked">
      <path
         class="checkout-segment"
         d="M450.600,125.001 A325,325 0 0 1 566.844,146.730 L548.868,193.387 A275,275 0 0 0 450.508,175.000 Z"
         fill="#25252d"
         stroke="#2e2e38"
         stroke-width="1.5"
         stroke-linejoin="round"
         id="path27" />
      <text
         class="checkout-label"
         x="505.125"
         y="155.108"
         fill="#f4f4f5"
         font-size="18px"
         font-weight="600"
         id="text27">121</text>
    </g>
    <g
       id="checkout-122"
       data-checkout="122"
       data-hits="0"
       data-level="Locked">
      <path
         class="checkout-segment"
         d="M567.963,147.164 A325,325 0 0 1 668.507,209.418 L634.891,246.431 A275,275 0 0 0 549.815,193.754 Z"
         fill="#25252d"
         stroke="#2e2e38"
         stroke-width="1.5"
         stroke-linejoin="round"
         id="path28" />
      <text
         class="checkout-label"
         x="607.930"
         y="194.935"
         fill="#f4f4f5"
         font-size="18px"
         font-weight="600"
         id="text28">122</text>
    </g>
    <g
       id="checkout-123"
       data-checkout="123"
       data-hits="0"
       data-level="Locked">
      <path
         class="checkout-segment"
         d="M669.394,210.227 A325,325 0 0 1 740.660,304.598 L695.943,326.968 A275,275 0 0 0 635.641,247.115 Z"
         fill="#25252d"
         stroke="#2e2e38"
         stroke-width="1.5"
         stroke-linejoin="round"
         id="path29" />
      <text
         class="checkout-label"
         x="689.405"
         y="269.210"
         fill="#f4f4f5"
         font-size="18px"
         font-weight="600"
         id="text29">123</text>
    </g>
    <g
       id="checkout-124"
       data-checkout="124"
       data-hits="0"
       data-level="Locked">
      <path
         class="checkout-segment"
         d="M741.195,305.672 A325,325 0 0 1 773.558,419.415 L723.780,424.121 A275,275 0 0 0 696.396,327.877 Z"
         fill="#25252d"
         stroke="#2e2e38"
         stroke-width="1.5"
         stroke-linejoin="round"
         id="path30" />
      <text
         class="checkout-label"
         x="738.548"
         y="367.901"
         fill="#f4f4f5"
         font-size="18px"
         font-weight="600"
         id="text30">124</text>
    </g>
    <g
       id="checkout-125"
       data-checkout="125"
       data-hits="0"
       data-level="Locked">
      <path
         class="checkout-segment"
         d="M773.668,420.610 A325,325 0 0 1 762.757,538.363 L714.641,524.769 A275,275 0 0 0 723.873,425.132 Z"
         fill="#25252d"
         stroke="#2e2e38"
         stroke-width="1.5"
         stroke-linejoin="round"
         id="path31" />
      <text
         class="checkout-label"
         x="748.720"
         y="477.681"
         fill="#f4f4f5"
         font-size="18px"
         font-weight="600"
         id="text31">125</text>
    </g>
    <g
       id="checkout-126"
       data-checkout="126"
       data-hits="0"
       data-level="Locked">
      <path
         class="checkout-segment"
         d="M762.429,539.517 A325,325 0 0 1 709.717,645.377 L669.760,615.319 A275,275 0 0 0 714.363,525.746 Z"
         fill="#25252d"
         stroke="#2e2e38"
         stroke-width="1.5"
         stroke-linejoin="round"
         id="path32" />
      <text
         class="checkout-label"
         x="718.549"
         y="583.722"
         fill="#f4f4f5"
         font-size="18px"
         font-weight="600"
         id="text32">126</text>
    </g>
    <g
       id="checkout-127"
       data-checkout="127"
       data-hits="0"
       data-level="Locked">
      <path
         class="checkout-segment"
         d="M708.994,646.335 A325,325 0 0 1 621.600,726.004 L595.200,683.542 A275,275 0 0 0 669.148,616.129 Z"
         fill="#25252d"
         stroke="#2e2e38"
         stroke-width="1.5"
         stroke-linejoin="round"
         id="path33" />
      <text
         class="checkout-label"
         x="652.109"
         y="671.703"
         fill="#f4f4f5"
         font-size="18px"
         font-weight="600"
         id="text33">127</text>
    </g>
    <g
       id="checkout-128"
       data-checkout="128"
       data-hits="0"
       data-level="Locked">
      <path
         class="checkout-segment"
         d="M620.580,726.636 A325,325 0 0 1 510.308,769.355 L501.030,720.224 A275,275 0 0 0 594.337,684.077 Z"
         fill="#25252d"
         stroke="#2e2e38"
         stroke-width="1.5"
         stroke-linejoin="round"
         id="path34" />
      <text
         class="checkout-label"
         x="558.372"
         y="729.742"
         fill="#f4f4f5"
         font-size="18px"
         font-weight="600"
         id="text34">128</text>
    </g>
    <g
       id="checkout-129"
       data-checkout="129"
       data-hits="0"
       data-level="Locked">
      <path
         class="checkout-segment"
         d="M509.129,769.576 A325,325 0 0 1 390.871,769.576 L399.968,720.410 A275,275 0 0 0 500.032,720.410 Z"
         fill="#25252d"
         stroke="#2e2e38"
         stroke-width="1.5"
         stroke-linejoin="round"
         id="path35" />
      <text
         class="checkout-label"
         x="450.000"
         y="750.000"
         fill="#f4f4f5"
         font-size="18px"
         font-weight="600"
         id="text35">129</text>
    </g>
    <g
       id="checkout-130"
       data-checkout="130"
       data-hits="0"
       data-level="Locked">
      <path
         class="checkout-segment"
         d="M389.692,769.355 A325,325 0 0 1 279.420,726.636 L305.663,684.077 A275,275 0 0 0 398.970,720.224 Z"
         fill="#25252d"
         stroke="#2e2e38"
         stroke-width="1.5"
         stroke-linejoin="round"
         id="path36" />
      <text
         class="checkout-label"
         x="341.628"
         y="729.742"
         fill="#f4f4f5"
         font-size="18px"
         font-weight="600"
         id="text36">130</text>
    </g>
    <g
       id="checkout-131"
       data-checkout="131"
       data-hits="0"
       data-level="Locked">
      <path
         class="checkout-segment"
         d="M278.400,726.004 A325,325 0 0 1 191.006,646.335 L230.852,616.129 A275,275 0 0 0 304.800,683.542 Z"
         fill="#25252d"
         stroke="#2e2e38"
         stroke-width="1.5"
         stroke-linejoin="round"
         id="path37" />
      <text
         class="checkout-label"
         x="247.891"
         y="671.703"
         fill="#f4f4f5"
         font-size="18px"
         font-weight="600"
         id="text37">131</text>
    </g>
    <g
       id="checkout-132"
       data-checkout="132"
       data-hits="0"
       data-level="Locked">
      <path
         class="checkout-segment"
         d="M190.283,645.377 A325,325 0 0 1 137.571,539.517 L185.637,525.746 A275,275 0 0 0 230.240,615.319 Z"
         fill="#25252d"
         stroke="#2e2e38"
         stroke-width="1.5"
         stroke-linejoin="round"
         id="path38" />
      <text
         class="checkout-label"
         x="181.451"
         y="583.722"
         fill="#f4f4f5"
         font-size="18px"
         font-weight="600"
         id="text38">132</text>
    </g>
    <g
       id="checkout-133"
       data-checkout="133"
       data-hits="0"
       data-level="Locked">
      <path
         class="checkout-segment"
         d="M137.243,538.363 A325,325 0 0 1 126.332,420.610 L176.127,425.132 A275,275 0 0 0 185.359,524.769 Z"
         fill="#25252d"
         stroke="#2e2e38"
         stroke-width="1.5"
         stroke-linejoin="round"
         id="path39" />
      <text
         class="checkout-label"
         x="151.280"
         y="477.681"
         fill="#f4f4f5"
         font-size="18px"
         font-weight="600"
         id="text39">133</text>
    </g>
    <g
       id="checkout-134"
       data-checkout="134"
       data-hits="0"
       data-level="Locked">
      <path
         class="checkout-segment"
         d="M126.442,419.415 A325,325 0 0 1 158.805,305.672 L203.604,327.877 A275,275 0 0 0 176.220,424.121 Z"
         fill="#25252d"
         stroke="#2e2e38"
         stroke-width="1.5"
         stroke-linejoin="round"
         id="path40" />
      <text
         class="checkout-label"
         x="161.452"
         y="367.901"
         fill="#f4f4f5"
         font-size="18px"
         font-weight="600"
         id="text40">134</text>
    </g>
    <g
       id="checkout-135"
       data-checkout="135"
       data-hits="0"
       data-level="Locked">
      <path
         class="checkout-segment"
         d="M159.340,304.598 A325,325 0 0 1 230.606,210.227 L264.359,247.115 A275,275 0 0 0 204.057,326.968 Z"
         fill="#25252d"
         stroke="#2e2e38"
         stroke-width="1.5"
         stroke-linejoin="round"
         id="path41" />
      <text
         class="checkout-label"
         x="210.595"
         y="269.210"
         fill="#f4f4f5"
         font-size="18px"
         font-weight="600"
         id="text41">135</text>
    </g>
    <g
       id="checkout-136"
       data-checkout="136"
       data-hits="0"
       data-level="Locked">
      <path
         class="checkout-segment"
         d="M231.493,209.418 A325,325 0 0 1 332.037,147.164 L350.185,193.754 A275,275 0 0 0 265.109,246.431 Z"
         fill="#25252d"
         stroke="#2e2e38"
         stroke-width="1.5"
         stroke-linejoin="round"
         id="path42" />
      <text
         class="checkout-label"
         x="292.070"
         y="194.935"
         fill="#f4f4f5"
         font-size="18px"
         font-weight="600"
         id="text42">136</text>
    </g>
    <g
       id="checkout-137"
       data-checkout="137"
       data-hits="0"
       data-level="Locked">
      <path
         class="checkout-segment"
         d="M333.156,146.730 A325,325 0 0 1 449.400,125.001 L449.492,175.000 A275,275 0 0 0 351.132,193.387 Z"
         fill="#25252d"
         stroke="#2e2e38"
         stroke-width="1.5"
         stroke-linejoin="round"
         id="path43" />
      <text
         class="checkout-label"
         x="394.875"
         y="155.108"
         fill="#f4f4f5"
         font-size="18px"
         font-weight="600"
         id="text43">137</text>
    </g>
    <g
       id="checkout-100"
       data-checkout="100"
       data-hits="0"
       data-level="Locked">
      <path
         class="checkout-segment"
         d="M450.600,90.001 A360,360 0 0 1 555.538,105.817 L545.278,139.280 A325,325 0 0 0 450.542,125.000 Z"
         fill="#25252d"
         stroke="#2e2e38"
         stroke-width="1.5"
         stroke-linejoin="round"
         id="path44"
         style="stroke-width:1.5;stroke-dasharray:none" />
      <text
         class="checkout-label"
         x="501.047"
         y="111.325"
         fill="#f4f4f5"
         font-size="16px"
         font-weight="600"
         id="text44">100</text>
    </g>
    <g
       id="checkout-101"
       data-checkout="101"
       data-hits="0"
       data-level="Locked">
      <path
         class="checkout-segment"
         d="M556.685,106.171 A360,360 0 0 1 652.299,152.216 L632.631,181.168 A325,325 0 0 0 546.313,139.599 Z"
         fill="#25252d"
         stroke="#2e2e38"
         stroke-width="1.5"
         stroke-linejoin="round"
         id="path45" />
      <text
         class="checkout-label"
         x="598.605"
         y="141.418"
         fill="#f4f4f5"
         font-size="16px"
         font-weight="600"
         id="text45">101</text>
    </g>
    <g
       id="checkout-102"
       data-checkout="102"
       data-hits="0"
       data-level="Locked">
      <path
         class="checkout-segment"
         d="M653.291,152.892 A360,360 0 0 1 731.085,225.075 L703.757,246.943 A325,325 0 0 0 633.526,181.778 Z"
         fill="#25252d"
         stroke="#2e2e38"
         stroke-width="1.5"
         stroke-linejoin="round"
         id="path46" />
      <text
         class="checkout-label"
         x="682.959"
         y="198.930"
         fill="#f4f4f5"
         font-size="16px"
         font-weight="600"
         id="text46">102</text>
    </g>
    <g
       id="checkout-103"
       data-checkout="103"
       data-hits="0"
       data-level="Locked">
      <path
         class="checkout-segment"
         d="M731.833,226.013 A360,360 0 0 1 784.895,317.919 L752.336,330.760 A325,325 0 0 0 704.433,247.790 Z"
         fill="#25252d"
         stroke="#2e2e38"
         stroke-width="1.5"
         stroke-linejoin="round"
         id="path47" />
      <text
         class="checkout-label"
         x="746.614"
         y="278.750"
         fill="#f4f4f5"
         font-size="16px"
         font-weight="600"
         id="text47">103</text>
    </g>
    <g
       id="checkout-104"
       data-checkout="104"
       data-hits="0"
       data-level="Locked">
      <path
         class="checkout-segment"
         d="M785.333,319.036 A360,360 0 0 1 808.948,422.499 L774.050,425.173 A325,325 0 0 0 752.731,331.769 Z"
         fill="#25252d"
         stroke="#2e2e38"
         stroke-width="1.5"
         stroke-linejoin="round"
         id="path48" />
      <text
         class="checkout-label"
         x="783.913"
         y="373.787"
         fill="#f4f4f5"
         font-size="16px"
         font-weight="600"
         id="text48">104</text>
    </g>
    <g
       id="checkout-105"
       data-checkout="105"
       data-hits="0"
       data-level="Locked">
      <path
         class="checkout-segment"
         d="M809.038,423.696 A360,360 0 0 1 801.107,529.522 L766.972,521.791 A325,325 0 0 0 774.131,426.253 Z"
         fill="#25252d"
         stroke="#2e2e38"
         stroke-width="1.5"
         stroke-linejoin="round"
         id="path49" />
      <text
         class="checkout-label"
         x="791.542"
         y="475.595"
         fill="#f4f4f5"
         font-size="16px"
         font-weight="600"
         id="text49">105</text>
    </g>
    <g
       id="checkout-106"
       data-checkout="106"
       data-hits="0"
       data-level="Locked">
      <path
         class="checkout-segment"
         d="M800.840,530.692 A360,360 0 0 1 762.069,629.480 L731.729,612.031 A325,325 0 0 0 766.731,522.847 Z"
         fill="#25252d"
         stroke="#2e2e38"
         stroke-width="1.5"
         stroke-linejoin="round"
         id="path50" />
      <text
         class="checkout-label"
         x="768.824"
         y="575.129"
         fill="#f4f4f5"
         font-size="16px"
         font-weight="600"
         id="text50">106</text>
    </g>
    <g
       id="checkout-107"
       data-checkout="107"
       data-hits="0"
       data-level="Locked">
      <path
         class="checkout-segment"
         d="M761.469,630.519 A360,360 0 0 1 695.302,713.490 L671.453,687.873 A325,325 0 0 0 731.187,612.969 Z"
         fill="#25252d"
         stroke="#2e2e38"
         stroke-width="1.5"
         stroke-linejoin="round"
         id="path51" />
      <text
         class="checkout-label"
         x="717.777"
         y="663.545"
         fill="#f4f4f5"
         font-size="16px"
         font-weight="600"
         id="text51">107</text>
    </g>
    <g
       id="checkout-108"
       data-checkout="108"
       data-hits="0"
       data-level="Locked">
      <path
         class="checkout-segment"
         d="M694.422,714.306 A360,360 0 0 1 606.739,774.088 L591.500,742.579 A325,325 0 0 0 670.659,688.610 Z"
         fill="#25252d"
         stroke="#2e2e38"
         stroke-width="1.5"
         stroke-linejoin="round"
         id="path52" />
      <text
         class="checkout-label"
         x="642.937"
         y="732.987"
         fill="#f4f4f5"
         font-size="16px"
         font-weight="600"
         id="text52">108</text>
    </g>
    <g
       id="checkout-109"
       data-checkout="109"
       data-hits="0"
       data-level="Locked">
      <path
         class="checkout-segment"
         d="M605.657,774.609 A360,360 0 0 1 504.248,805.889 L498.974,771.289 A325,325 0 0 0 590.524,743.049 Z"
         fill="#25252d"
         stroke="#2e2e38"
         stroke-width="1.5"
         stroke-linejoin="round"
         id="path53" />
      <text
         class="checkout-label"
         x="550.954"
         y="777.284"
         fill="#f4f4f5"
         font-size="16px"
         font-weight="600"
         id="text53">109</text>
    </g>
    <g
       id="checkout-110"
       data-checkout="110"
       data-hits="0"
       data-level="Locked">
      <path
         class="checkout-segment"
         d="M503.062,806.068 A360,360 0 0 1 396.938,806.068 L402.097,771.450 A325,325 0 0 0 497.903,771.450 Z"
         fill="#25252d"
         stroke="#2e2e38"
         stroke-width="1.5"
         stroke-linejoin="round"
         id="path54" />
      <text
         class="checkout-label"
         x="450.000"
         y="792.500"
         fill="#f4f4f5"
         font-size="16px"
         font-weight="600"
         id="text54">110</text>
    </g>
    <g
       id="checkout-111"
       data-checkout="111"
       data-hits="0"
       data-level="Locked">
      <path
         class="checkout-segment"
         d="M395.752,805.889 A360,360 0 0 1 294.343,774.609 L309.476,743.049 A325,325 0 0 0 401.026,771.289 Z"
         fill="#25252d"
         stroke="#2e2e38"
         stroke-width="1.5"
         stroke-linejoin="round"
         id="path55" />
      <text
         class="checkout-label"
         x="349.046"
         y="777.284"
         fill="#f4f4f5"
         font-size="16px"
         font-weight="600"
         id="text55">111</text>
    </g>
    <g
       id="checkout-112"
       data-checkout="112"
       data-hits="0"
       data-level="Locked">
      <path
         class="checkout-segment"
         d="M293.261,774.088 A360,360 0 0 1 205.578,714.306 L229.341,688.610 A325,325 0 0 0 308.500,742.579 Z"
         fill="#25252d"
         stroke="#2e2e38"
         stroke-width="1.5"
         stroke-linejoin="round"
         id="path56" />
      <text
         class="checkout-label"
         x="257.063"
         y="732.987"
         fill="#f4f4f5"
         font-size="16px"
         font-weight="600"
         id="text56">112</text>
    </g>
    <g
       id="checkout-113"
       data-checkout="113"
       data-hits="0"
       data-level="Locked">
      <path
         class="checkout-segment"
         d="M204.698,713.490 A360,360 0 0 1 138.531,630.519 L168.813,612.969 A325,325 0 0 0 228.547,687.873 Z"
         fill="#25252d"
         stroke="#2e2e38"
         stroke-width="1.5"
         stroke-linejoin="round"
         id="path57" />
      <text
         class="checkout-label"
         x="182.223"
         y="663.545"
         fill="#f4f4f5"
         font-size="16px"
         font-weight="600"
         id="text57">113</text>
    </g>
    <g
       id="checkout-114"
       data-checkout="114"
       data-hits="0"
       data-level="Locked">
      <path
         class="checkout-segment"
         d="M137.931,629.480 A360,360 0 0 1 99.160,530.692 L133.269,522.847 A325,325 0 0 0 168.271,612.031 Z"
         fill="#25252d"
         stroke="#2e2e38"
         stroke-width="1.5"
         stroke-linejoin="round"
         id="path58" />
      <text
         class="checkout-label"
         x="131.176"
         y="575.129"
         fill="#f4f4f5"
         font-size="16px"
         font-weight="600"
         id="text58">114</text>
    </g>
    <g
       id="checkout-115"
       data-checkout="115"
       data-hits="0"
       data-level="Locked">
      <path
         class="checkout-segment"
         d="M98.893,529.522 A360,360 0 0 1 90.962,423.696 L125.869,426.253 A325,325 0 0 0 133.028,521.791 Z"
         fill="#25252d"
         stroke="#2e2e38"
         stroke-width="1.5"
         stroke-linejoin="round"
         id="path59" />
      <text
         class="checkout-label"
         x="108.458"
         y="475.595"
         fill="#f4f4f5"
         font-size="16px"
         font-weight="600"
         id="text59">115</text>
    </g>
    <g
       id="checkout-116"
       data-checkout="116"
       data-hits="0"
       data-level="Locked">
      <path
         class="checkout-segment"
         d="M91.052,422.499 A360,360 0 0 1 114.667,319.036 L147.269,331.769 A325,325 0 0 0 125.950,425.173 Z"
         fill="#25252d"
         stroke="#2e2e38"
         stroke-width="1.5"
         stroke-linejoin="round"
         id="path60" />
      <text
         class="checkout-label"
         x="116.087"
         y="373.787"
         fill="#f4f4f5"
         font-size="16px"
         font-weight="600"
         id="text60">116</text>
    </g>
    <g
       id="checkout-117"
       data-checkout="117"
       data-hits="0"
       data-level="Locked">
      <path
         class="checkout-segment"
         d="M115.105,317.919 A360,360 0 0 1 168.167,226.013 L195.567,247.790 A325,325 0 0 0 147.664,330.760 Z"
         fill="#25252d"
         stroke="#2e2e38"
         stroke-width="1.5"
         stroke-linejoin="round"
         id="path61" />
      <text
         class="checkout-label"
         x="153.386"
         y="278.750"
         fill="#f4f4f5"
         font-size="16px"
         font-weight="600"
         id="text61">117</text>
    </g>
    <g
       id="checkout-118"
       data-checkout="118"
       data-hits="0"
       data-level="Locked">
      <path
         class="checkout-segment"
         d="M168.915,225.075 A360,360 0 0 1 246.709,152.892 L266.474,181.778 A325,325 0 0 0 196.243,246.943 Z"
         fill="#25252d"
         stroke="#2e2e38"
         stroke-width="1.5"
         stroke-linejoin="round"
         id="path62" />
      <text
         class="checkout-label"
         x="217.041"
         y="198.930"
         fill="#f4f4f5"
         font-size="16px"
         font-weight="600"
         id="text62">118</text>
    </g>
    <g
       id="checkout-119"
       data-checkout="119"
       data-hits="0"
       data-level="Locked">
      <path
         class="checkout-segment"
         d="M247.701,152.216 A360,360 0 0 1 343.315,106.171 L353.687,139.599 A325,325 0 0 0 267.369,181.168 Z"
         fill="#25252d"
         stroke="#2e2e38"
         stroke-width="1.5"
         stroke-linejoin="round"
         id="path63" />
      <text
         class="checkout-label"
         x="301.395"
         y="141.418"
         fill="#f4f4f5"
         font-size="16px"
         font-weight="600"
         id="text63">119</text>
    </g>
    <g
       id="checkout-120"
       data-checkout="120"
       data-hits="0"
       data-level="Locked">
      <path
         class="checkout-segment"
         d="M344.462,105.817 A360,360 0 0 1 449.400,90.001 L449.458,125.000 A325,325 0 0 0 354.722,139.280 Z"
         fill="#25252d"
         stroke="#2e2e38"
         stroke-width="1.5"
         stroke-linejoin="round"
         id="path64" />
      <text
         class="checkout-label"
         x="398.953"
         y="111.325"
         fill="#f4f4f5"
         font-size="16px"
         font-weight="600"
         id="text64">120</text>
    </g>
  </g>
</svg>
